HIERARCHY
ROOT joint_Root
{
	OFFSET 0.0 0.0 0.0
	CHANNELS 6 Xposition Yposition Zposition Zrotation Xrotation Yrotation 
	JOINT Hips
	{
		OFFSET -17.1583 93.1646 452.98
		CHANNELS 6 Xposition Yposition Zposition Zrotation Xrotation Yrotation 
		JOINT Spine
		{
			OFFSET 15.7357 0.0 0.0
			CHANNELS 6 Xposition Yposition Zposition Zrotation Xrotation Yrotation 
			JOINT Chest
			{
				OFFSET 8.98455 -0.406207 0.0
				CHANNELS 6 Xposition Yposition Zposition Zrotation Xrotation Yrotation 
				JOINT Neck
				{
					OFFSET 16.3773 0.0 0.0
					CHANNELS 6 Xposition Yposition Zposition Zrotation Xrotation Yrotation 
					JOINT Head
					{
						OFFSET 6.45672 0.0 0.0
						CHANNELS 6 Xposition Yposition Zposition Zrotation Xrotation Yrotation 
						End Site
						{
							OFFSET 0.0 0.0 0.0
						}
					}
				}
				JOINT Shoulder_L
				{
					OFFSET 12.9942 -0.242716 4.98039
					CHANNELS 6 Xposition Yposition Zposition Zrotation Xrotation Yrotation 
					JOINT UpperArm_L
					{
						OFFSET 5.34809 0.0 0.0
						CHANNELS 6 Xposition Yposition Zposition Zrotation Xrotation Yrotation 
						JOINT LowerArm_L
						{
							OFFSET 24.3286 1.87007e-05 0.0
							CHANNELS 6 Xposition Yposition Zposition Zrotation Xrotation Yrotation 
							JOINT Hand_L
							{
								OFFSET 22.2916 0.0 0.0
								CHANNELS 6 Xposition Yposition Zposition Zrotation Xrotation Yrotation 
								End Site
								{
									OFFSET 0.0 0.0 0.0
								}
							}
						}
					}
				}
				JOINT Shoulder_R
				{
					OFFSET 12.9945 -0.242716 -4.98039
					CHANNELS 6 Xposition Yposition Zposition Zrotation Xrotation Yrotation 
					JOINT UpperArm_R
					{
						OFFSET -5.34813 0.0 0.0
						CHANNELS 6 Xposition Yposition Zposition Zrotation Xrotation Yrotation 
						JOINT LowerArm_R
						{
							OFFSET -24.3289 0.000322201 0.0
							CHANNELS 6 Xposition Yposition Zposition Zrotation Xrotation Yrotation 
							JOINT Hand_R
							{
								OFFSET -22.2915 -0.000108084 0.0
								CHANNELS 6 Xposition Yposition Zposition Zrotation Xrotation Yrotation 
								End Site
								{
									OFFSET 0.0 0.0 0.0
								}
							}
						}
					}
				}
			}
		}
		JOINT UpperLeg_L
		{
			OFFSET -2.19248 -6.46944 0.0
			CHANNELS 6 Xposition Yposition Zposition Zrotation Xrotation Yrotation 
			JOINT LowerLeg_L
			{
				OFFSET 39.0811 0.0 -1.23785e-05
				CHANNELS 6 Xposition Yposition Zposition Zrotation Xrotation Yrotation 
				JOINT Foot_L
				{
					OFFSET 40.9854 0.0 -1.26872e-05
					CHANNELS 6 Xposition Yposition Zposition Zrotation Xrotation Yrotation 
					JOINT Toes_L
					{
						OFFSET 11.7543 0.0 0.0
						CHANNELS 6 Xposition Yposition Zposition Zrotation Xrotation Yrotation 
						End Site
						{
							OFFSET 0.0 0.0 0.0
						}
					}
				}
			}
		}
		JOINT UpperLeg_R
		{
			OFFSET -2.19251 6.46944 0.0
			CHANNELS 6 Xposition Yposition Zposition Zrotation Xrotation Yrotation 
			JOINT LowerLeg_R
			{
				OFFSET -39.0811 -0.00228153 -0.0401928
				CHANNELS 6 Xposition Yposition Zposition Zrotation Xrotation Yrotation 
				JOINT Foot_R
				{
					OFFSET -40.9854 0.0 0.0
					CHANNELS 6 Xposition Yposition Zposition Zrotation Xrotation Yrotation 
					JOINT Toes_R
					{
						OFFSET -11.7543 0.0 0.0
						CHANNELS 6 Xposition Yposition Zposition Zrotation Xrotation Yrotation 
						End Site
						{
							OFFSET 0.0 0.0 0.0
						}
					}
				}
			}
		}
	}
}
MOTION
Frames:	5
Frame Time:	0.0333333
0.000000 0.000000 0.000000 0.000000 0.000000 -0.000000 -4.571260 92.781900 -0.386369 86.725600 1.433260 5.938380 15.735700 0.000005 -0.000001 68.847100 85.309600 -66.057600 8.984550 -0.406207 -0.000000 1.077690 -3.546420 5.609270 16.377300 -0.000001 -0.000001 7.985620 2.680820 3.180580 6.456720 -0.000001 -0.000000 -10.410900 4.883010 4.627120 12.994200 -0.242716 4.980390 -93.293100 9.740160 -71.216900 5.348090 -0.000007 -0.000001 -73.794200 26.636500 0.005395 24.328600 0.000019 0.000005 11.802400 27.622900 -24.259700 22.291600 -0.000001 0.000005 -3.086940 5.081770 5.528180 12.994500 -0.242716 -4.980390 87.860900 5.633420 -69.167800 -5.348130 -0.000001 -0.000004 -65.400500 31.418300 -7.717900 -24.328900 0.000322 -0.000009 0.615902 1.817170 -18.756300 -22.291500 -0.000108 -0.000004 -11.470900 4.977810 7.791500 -2.192480 -6.469440 -0.000000 -167.975000 -8.375550 2.977710 39.081100 -0.000007 -0.000012 -0.007554 0.025042 16.784600 40.985400 -0.000006 -0.000013 -2.675170 19.383800 -68.468300 11.754300 -0.000000 0.000003 -0.001710 0.192656 -8.760920 -2.192510 6.469440 -0.000001 -179.532000 5.221570 -175.835000 -39.081100 -0.002282 -0.040193 0.053861 -0.184821 15.291400 -40.985400 0.000008 0.000006 -1.178610 8.570510 -69.653800 -11.754300 -0.000006 -0.000006 -0.008549 0.260123 -6.008120
0.000000 0.000000 0.000000 0.000000 0.000000 -0.000000 -4.464670 92.772600 -0.327934 86.717300 1.945130 5.974790 15.735700 0.000005 -0.000001 67.010500 85.201200 -64.257800 8.984550 -0.406207 -0.000000 1.172380 -3.905140 5.542440 16.377300 -0.000001 -0.000001 7.829370 2.878300 3.507960 6.456720 -0.000001 -0.000000 -10.994000 5.429470 4.554020 12.994200 -0.242716 4.980390 -93.227000 9.603550 -71.327100 5.348090 -0.000007 -0.000001 -74.099600 25.503500 0.205787 24.328600 0.000019 0.000005 11.886900 27.308600 -24.646500 22.291600 -0.000001 0.000005 -3.002780 5.079540 5.578610 12.994500 -0.242716 -4.980390 87.691500 5.940940 -68.719700 -5.348130 -0.000001 -0.000004 -64.127600 28.188700 -7.295250 -24.328900 0.000322 -0.000009 0.553057 1.329100 -22.696200 -22.291500 -0.000108 -0.000004 -14.328100 4.922900 8.931320 -2.192480 -6.469440 -0.000000 -168.068000 -8.073930 2.808150 39.081100 -0.000007 -0.000012 -0.006113 0.020001 16.994600 40.985400 -0.000006 -0.000013 -2.532330 19.574700 -68.548100 11.754300 -0.000000 0.000003 -0.001545 0.190494 -8.848790 -2.192510 6.469440 -0.000001 -179.713000 5.849850 -175.681000 -39.081100 -0.002282 -0.040193 0.050269 -0.172555 15.217700 -40.985400 0.000008 0.000006 -1.341970 8.747250 -69.608000 -11.754300 -0.000006 -0.000006 -0.008224 0.257515 -6.114640
0.000000 0.000000 0.000000 0.000000 0.000000 -0.000000 -4.342290 92.794300 -0.291613 86.705300 2.405270 5.827620 15.735700 0.000005 -0.000001 65.599200 85.105900 -62.923400 8.984550 -0.406207 -0.000000 1.255260 -4.193740 5.394960 16.377300 -0.000001 -0.000001 7.201920 3.022730 3.745110 6.456720 -0.000001 -0.000000 -11.962100 5.924630 4.436570 12.994200 -0.242716 4.980390 -93.208500 9.630400 -71.474700 5.348090 -0.000007 -0.000001 -73.980500 24.779600 0.529134 24.328600 0.000019 0.000005 11.820000 26.147100 -25.402900 22.291600 -0.000001 0.000005 -2.764000 5.081340 5.538050 12.994500 -0.242716 -4.980390 87.593000 6.024000 -68.172200 -5.348130 -0.000001 -0.000004 -62.785900 23.276700 -6.184050 -24.328900 0.000322 -0.000009 -0.629643 -1.056590 -30.527000 -22.291500 -0.000108 -0.000004 -18.602100 4.863170 10.113000 -2.192480 -6.469440 -0.000000 -168.185000 -7.875280 2.571930 39.081100 -0.000007 -0.000012 -0.004785 0.015672 16.976200 40.985400 -0.000006 -0.000013 -2.422570 19.763200 -68.565500 11.754300 -0.000000 0.000003 -0.001545 0.190493 -8.848840 -2.192510 6.469440 -0.000001 -179.956000 6.560090 -175.644000 -39.081100 -0.002282 -0.040193 0.040171 -0.137793 14.968700 -40.985400 0.000008 0.000006 -1.941820 9.178240 -69.349300 -11.754300 -0.000006 -0.000006 -0.008176 0.257127 -6.130500
0.000000 0.000000 0.000000 0.000000 0.000000 -0.000000 -4.222110 92.823500 -0.297930 86.598300 2.753420 5.416600 15.735700 0.000005 -0.000001 64.602000 85.052100 -62.054800 8.984550 -0.406207 -0.000000 1.280360 -4.386520 5.141040 16.377300 -0.000001 -0.000001 6.103220 3.053250 3.947720 6.456720 -0.000001 -0.000000 -13.383900 6.313430 4.256680 12.994200 -0.242716 4.980390 -93.227700 9.754480 -71.590000 5.348090 -0.000007 -0.000001 -73.268200 24.696000 0.843374 24.328600 0.000019 0.000005 12.101300 25.232800 -26.700200 22.291600 -0.000001 0.000005 -2.682970 5.090670 5.326530 12.994500 -0.242716 -4.980390 87.577900 5.866790 -67.519600 -5.348130 -0.000001 -0.000004 -60.823400 18.475700 -4.810790 -24.328900 0.000322 -0.000009 -3.222370 -3.489920 -42.696300 -22.291500 -0.000108 -0.000004 -21.403800 4.820580 10.927700 -2.192480 -6.469440 -0.000000 -168.243000 -7.788160 2.025500 39.081100 -0.000007 -0.000012 -0.002290 0.007466 17.046100 40.985400 -0.000006 -0.000013 -2.308080 19.902900 -68.651900 11.754300 -0.000000 0.000003 -0.001644 0.191791 -8.796060 -2.192510 6.469440 -0.000001 179.910000 7.496150 -175.825000 -39.081100 -0.002282 -0.040193 0.031085 -0.107150 14.521600 -40.985400 0.000008 0.000006 -2.292990 9.855840 -68.927800 -11.754300 -0.000006 -0.000006 -0.008163 0.257026 -6.134640
0.000000 0.000000 0.000000 0.000000 0.000000 -0.000000 -4.082140 92.897500 -0.303639 86.551100 2.836640 4.833610 15.735700 0.000005 -0.000001 64.383900 85.094900 -62.086200 8.984550 -0.406207 -0.000000 1.175830 -4.371560 4.638250 16.377300 -0.000001 -0.000001 4.705260 2.970640 4.003830 6.456720 -0.000001 -0.000000 -14.808500 6.507750 4.025890 12.994200 -0.242716 4.980390 -93.254100 9.852560 -71.620000 5.348090 -0.000007 -0.000001 -72.188600 24.765300 1.143580 24.328600 0.000019 0.000005 12.499600 24.708600 -27.939100 22.291600 -0.000001 0.000005 -2.524900 5.108640 4.914660 12.994500 -0.242716 -4.980390 87.565600 5.743670 -66.983600 -5.348130 -0.000001 -0.000004 -57.655900 13.349200 -3.611110 -24.328900 0.000322 -0.000009 -5.055360 -3.121400 -58.403500 -22.291500 -0.000108 -0.000004 -20.932200 4.810300 11.124000 -2.192480 -6.469440 -0.000000 -168.363000 -7.972490 1.646770 39.081100 -0.000007 -0.000012 -0.003573 0.011972 16.614700 40.985400 -0.000006 -0.000013 -2.268100 20.000800 -68.553400 11.754300 -0.000000 0.000003 -0.001665 0.192075 -8.784540 -2.192510 6.469440 -0.000001 179.735000 8.145320 -176.033000 -39.081100 -0.002282 -0.040193 0.018069 -0.060281 13.737800 -40.985400 0.000008 0.000006 -3.059440 10.573000 -68.193000 -11.754300 -0.000006 -0.000006 -0.007931 0.255133 -6.211940
